{"title":"Dara and Ed's Great Big Adventure S01E02. Guatemala to Nicaragua","uid":11789603,"size":665547629,"categoryP":"video","categoryS":"tv_shows","magnet":"?xt=urn:btih:2e1072a93b0e248ed6bf6cc455e5cc0da53ff022&amp;dn=Dara+and+Ed%27s+Great+Big+Adventure+S01E02.+Guatemala+to+Nicaragua&amp;tr=udp%3A%2F%2Ftracker.openbittorrent.com%3A80&amp;tr=udp%3A%2F%2Fopen.demonii.com%3A1337&amp;tr=udp%3A%2F%2Ftracker.coppersurfer.tk%3A6969&amp;tr=udp%3A%2F%2Fexodus.desync.com%3A6969","seeders":10,"leechers":0,"uploader":"akula941","files":1,"time":1427886186,"description":"Description\nEd Byrne and Dara O'Briain embark on a 4,000-mile pan-American adventure. The duo continue to Guatemala and head for the ancient colonial city of Antigua.\n\n\n\nFormat : MPEG-4\nFormat profile : Base Media\nCodec ID : isom\nFile size : 635 MiB\nDuration : 59mn 2s\nOverall bit rate mode : Constant\nOverall bit rate : 1 503 Kbps\nWriting application : Lavf54.63.104\n\nVideo\nID : 1\nFormat : AVC\nFormat/Info : Advanced Video Codec\nFormat profile : &lt;a class=&quot;__cf_email__&quot; href=&quot;/cdn-cgi/l/email-protection&quot; data-cfemail=&quot;3479555d5a7478071a05&quot;&gt;[email&amp;#160;protected]&lt;/a&gt;&lt;script cf-hash='f9e31' type=&quot;text/javascript&quot;&gt;\n/* &lt;![CDATA[ */!function(){try{var t=&quot;currentScript&quot;in document?document.currentScript:function(){for(var t=document.getElementsByTagName(&quot;script&quot;),e=t.length;e--;)if(t[e].getAttribute(&quot;cf-hash&quot;))return t[e]}();if(t&amp;&amp;t.previousSibling){var e,r,n,i,c=t.previousSibling,a=c.getAttribute(&quot;data-cfemail&quot;);if(a){for(e=&quot;&quot;,r=parseInt(a.substr(0,2),16),n=2;a.length-n;n+=2)i=parseInt(a.substr(n,2),16)^r,e+=String.fromCharCode(i);e=document.createTextNode(e),c.parentNode.replaceChild(e,c)}}}catch(u){}}();/* ]]&gt; */&lt;/script&gt;\nFormat settings, CABAC : Yes\nFormat settings, ReFrames : 2 frames\nCodec ID : avc1\nCodec ID/Info : Advanced Video Coding\nDuration : 59mn 2s\nBit rate mode : Constant\nBit rate : 1404 Kbps\nWidth : 832 pixels\nHeight : 468 pixels\nDisplay aspect ratio : 16:9\nFrame rate mode : Constant\nFrame rate : 25.000 fps\nColor space : YUV\nChroma subsampling : 4:2:0\nBit depth : 8 bits\nScan type : Progressive\nBits/(Pixel*Frame) : 0.144\nStream size : 593 MiB (93%)\n\nAudio\nID : 2\nFormat : AAC\nFormat/Info : Advanced Audio Codec\nFormat profile : LC\nCodec ID : 40\nDuration : 59mn 2s\nBit rate mode : Constant\nBit rate : 93.5 Kbps\nChannel(s) : 2 channels\nChannel positions : Front: L R\nSampling rate : 48.0 KHz\nCompression mode : Lossy\nStream size : 39.5 MiB (6%)","torrent":{"xt":"urn:btih:2e1072a93b0e248ed6bf6cc455e5cc0da53ff022","amp;dn":"Dara+and+Ed%27s+Great+Big+Adventure+S01E02.+Guatemala+to+Nicaragua","amp;tr":["udp%3A%2F%2Ftracker.openbittorrent.com%3A80","udp%3A%2F%2Fopen.demonii.com%3A1337","udp%3A%2F%2Ftracker.coppersurfer.tk%3A6969","udp%3A%2F%2Fexodus.desync.com%3A6969"],"infoHash":"2e1072a93b0e248ed6bf6cc455e5cc0da53ff022","infoHashBuffer":{"type":"Buffer","data":[46,16,114,169,59,14,36,142,214,191,108,196,85,229,204,13,165,63,240,34]},"announce":[],"urlList":[]}}